<?xml version="1.0" encoding="UTF-8" standalone="no"?>
<svg width="449px" height="102px" viewBox="0 0 449 102" version="1.1" xmlns="http://www.w3.org/2000/svg" xmlns:xlink="http://www.w3.org/1999/xlink" xmlns:sketch="http://www.bohemiancoding.com/sketch/ns">
    <!-- Generator: Sketch 3.3.2 (12043) - http://www.bohemiancoding.com/sketch -->
    <title>Group</title>
    <desc>Created with Sketch.</desc>
    <defs></defs>
    <g id="Page-1" stroke="none" stroke-width="1" fill="none" fill-rule="evenodd" sketch:type="MSPage">
        <g id="Brand-&amp;-Logo-1" sketch:type="MSArtboardGroup" transform="translate(-110.000000, -460.000000)" fill="#4277BB">
            <g id="Group" sketch:type="MSLayerGroup" transform="translate(110.000000, 460.000000)">
                <path d="M8.08890516,95.9643073 C13.7764166,95.9643073 15.8618375,92.8562142 15.8618375,89.8724447 C15.8618375,82.1332928 3.38090958,84.8062529 3.38090958,80.1441131 C3.38090958,78.1860145 5.21355215,76.8495344 7.70973773,76.8495344 C10.0163396,76.8495344 12.2281496,77.5954768 13.8080139,79.3360089 L15.3878782,77.4400721 C13.6184302,75.6062971 11.1222446,74.5184645 7.93091873,74.5184645 C3.76007701,74.5184645 0.663543001,76.8806153 0.663543001,80.2995178 C0.663543001,87.6967795 13.1444709,84.7130101 13.1444709,90.0589303 C13.1444709,91.6751388 11.943774,93.6643184 8.18369702,93.6643184 C5.21355215,93.6643184 2.93854758,92.2345955 1.57986429,90.680549 L0,92.6697286 C1.73785072,94.5967463 4.45521729,95.9643073 8.08890516,95.9643073 L8.08890516,95.9643073 Z M20.8858059,78.4346619 C21.7705299,78.4346619 22.4656702,77.7508814 22.4656702,76.8806153 C22.4656702,76.0103492 21.7705299,75.2954878 20.8858059,75.2954878 C20.0010819,75.2954878 19.2743443,76.0103492 19.2743443,76.8806153 C19.2743443,77.7508814 20.0010819,78.4346619 20.8858059,78.4346619 L20.8858059,78.4346619 Z M22.0549055,95.5913361 L22.0549055,80.5792462 L19.685109,80.5792462 L19.685109,95.5913361 L22.0549055,95.5913361 Z M47.5855124,95.5913361 L47.5855124,84.744091 C47.5855124,81.7292407 46.1004399,80.206275 43.3198788,80.206275 C41.1080688,80.206275 39.0542452,81.6359979 38.2011185,83.0035589 C37.7587565,81.4495123 36.4316705,80.206275 34.1250686,80.206275 C31.8500641,80.206275 29.8278378,81.7914025 29.1642948,82.7549114 L29.1642948,80.5792462 L26.7944983,80.5792462 L26.7944983,95.5913361 L29.1642948,95.5913361 L29.1642948,84.6197673 C29.9858242,83.407611 31.6288831,82.2886974 33.1771501,82.2886974 C35.1993764,82.2886974 35.9893085,83.5008538 35.9893085,85.3967906 L35.9893085,95.5913361 L38.3591049,95.5913361 L38.3591049,84.5886864 C39.1490371,83.37653 40.8236932,82.2886974 42.4035575,82.2886974 C44.3941865,82.2886974 45.2157159,83.5008538 45.2157159,85.3967906 L45.2157159,95.5913361 L47.5855124,95.5913361 Z M59.8452593,95.9643073 C63.8581146,95.9643073 66.6386757,92.918376 66.6386757,88.0697507 C66.6386757,83.1900444 63.8581146,80.206275 59.8452593,80.206275 C57.6966438,80.206275 55.8008067,81.2941076 54.6949017,82.8170733 L54.6949017,80.5792462 L52.3251052,80.5792462 L52.3251052,101.310228 L54.6949017,101.310228 L54.6949017,93.3224281 C55.9587931,94.9697175 57.7598384,95.9643073 59.8452593,95.9643073 L59.8452593,95.9643073 Z M59.2449108,93.8818849 C57.380671,93.8818849 55.5164311,92.7629714 54.6949017,91.4575722 L54.6949017,84.6819292 C55.5164311,83.37653 57.380671,82.2886974 59.2449108,82.2886974 C62.3098475,82.2886974 64.1424901,84.744091 64.1424901,88.0697507 C64.1424901,91.3954104 62.3098475,93.8818849 59.2449108,93.8818849 L59.2449108,93.8818849 Z M72.7685491,95.5913361 L72.7685491,74.8603548 L70.3987527,74.8603548 L70.3987527,95.5913361 L72.7685491,95.5913361 Z M76.6866126,101.465632 C77.0973773,101.589956 77.8873094,101.683199 78.392866,101.683199 C80.4150923,101.652118 81.9633593,100.812933 82.8796806,98.6372674 L90.5262237,80.5792462 L87.9668436,80.5792462 L82.8796806,92.8872951 L77.8241149,80.5792462 L75.2331374,80.5792462 L81.6157892,95.7467408 L80.604676,98.0156488 C80.0675222,99.2588861 79.3723819,99.6007763 78.3296714,99.6007763 C77.950504,99.6007763 77.3817529,99.5075335 77.0341827,99.3521289 L76.6866126,101.465632 Z M108.094315,95.9643073 C113.781826,95.9643073 115.867247,92.8562142 115.867247,89.8724447 C115.867247,82.1332928 103.386319,84.8062529 103.386319,80.1441131 C103.386319,78.1860145 105.218962,76.8495344 107.715147,76.8495344 C110.021749,76.8495344 112.233559,77.5954768 113.813423,79.3360089 L115.393288,77.4400721 C113.62384,75.6062971 111.127654,74.5184645 107.936328,74.5184645 C103.765486,74.5184645 100.668952,76.8806153 100.668952,80.2995178 C100.668952,87.6967795 113.14988,84.7130101 113.14988,90.0589303 C113.14988,91.6751388 111.949184,93.6643184 108.189106,93.6643184 C105.218962,93.6643184 102.943957,92.2345955 101.585274,90.680549 L100.005409,92.6697286 C101.74326,94.5967463 104.460627,95.9643073 108.094315,95.9643073 L108.094315,95.9643073 Z M132.392627,95.5913361 L132.392627,84.9927385 C132.392627,81.7292407 130.717971,80.206275 127.526645,80.206275 C125.220044,80.206275 123.134623,81.4805932 122.091912,82.7549114 L122.091912,74.8603548 L119.722116,74.8603548 L119.722116,95.5913361 L122.091912,95.5913361 L122.091912,84.6197673 C122.976636,83.407611 124.746084,82.2886974 126.578727,82.2886974 C128.664148,82.2886974 130.022831,83.0346398 130.022831,85.7075999 L130.022831,95.5913361 L132.392627,95.5913361 Z M138.332917,78.4346619 C139.217641,78.4346619 139.912781,77.7508814 139.912781,76.8806153 C139.912781,76.0103492 139.217641,75.2954878 138.332917,75.2954878 C137.448193,75.2954878 136.721456,76.0103492 136.721456,76.8806153 C136.721456,77.7508814 137.448193,78.4346619 138.332917,78.4346619 L138.332917,78.4346619 Z M139.502017,95.5913361 L139.502017,80.5792462 L137.13222,80.5792462 L137.13222,95.5913361 L139.502017,95.5913361 Z M151.761764,95.9643073 C155.774619,95.9643073 158.55518,92.918376 158.55518,88.0697507 C158.55518,83.1900444 155.774619,80.206275 151.761764,80.206275 C149.613148,80.206275 147.717311,81.2941076 146.611406,82.8170733 L146.611406,80.5792462 L144.24161,80.5792462 L144.24161,101.310228 L146.611406,101.310228 L146.611406,93.3224281 C147.875297,94.9697175 149.676343,95.9643073 151.761764,95.9643073 L151.761764,95.9643073 Z M151.161415,93.8818849 C149.297175,93.8818849 147.432935,92.7629714 146.611406,91.4575722 L146.611406,84.6819292 C147.432935,83.37653 149.297175,82.2886974 151.161415,82.2886974 C154.226352,82.2886974 156.058994,84.744091 156.058994,88.0697507 C156.058994,91.3954104 154.226352,93.8818849 151.161415,93.8818849 L151.161415,93.8818849 Z M169.835411,95.9643073 C173.848266,95.9643073 176.628827,92.918376 176.628827,88.0697507 C176.628827,83.1900444 173.848266,80.206275 169.835411,80.206275 C167.686796,80.206275 165.790958,81.2941076 164.685053,82.8170733 L164.685053,80.5792462 L162.315257,80.5792462 L162.315257,101.310228 L164.685053,101.310228 L164.685053,93.3224281 C165.948945,94.9697175 167.74999,95.9643073 169.835411,95.9643073 L169.835411,95.9643073 Z M169.235063,93.8818849 C167.370823,93.8818849 165.506583,92.7629714 164.685053,91.4575722 L164.685053,84.6819292 C165.506583,83.37653 167.370823,82.2886974 169.235063,82.2886974 C172.299999,82.2886974 174.132642,84.744091 174.132642,88.0697507 C174.132642,91.3954104 172.299999,93.8818849 169.235063,93.8818849 L169.235063,93.8818849 Z M181.589601,78.4346619 C182.474325,78.4346619 183.169466,77.7508814 183.169466,76.8806153 C183.169466,76.0103492 182.474325,75.2954878 181.589601,75.2954878 C180.704877,75.2954878 179.97814,76.0103492 179.97814,76.8806153 C179.97814,77.7508814 180.704877,78.4346619 181.589601,78.4346619 L181.589601,78.4346619 Z M182.758701,95.5913361 L182.758701,80.5792462 L180.388904,80.5792462 L180.388904,95.5913361 L182.758701,95.5913361 Z M200.168805,95.5913361 L200.168805,85.0549003 C200.168805,81.7914025 198.494149,80.206275 195.334421,80.206275 C193.027819,80.206275 190.942398,81.4805932 189.86809,82.7549114 L189.86809,80.5792462 L187.498294,80.5792462 L187.498294,95.5913361 L189.86809,95.5913361 L189.86809,84.6197673 C190.784412,83.407611 192.522262,82.2886974 194.386502,82.2886974 C196.440326,82.2886974 197.830606,83.0968016 197.830606,85.7697618 L197.830606,95.5913361 L200.168805,95.5913361 Z M211.069869,101.683199 C214.798349,101.683199 218.368842,100.129152 218.368842,95.3737696 L218.368842,80.5792462 L215.999046,80.5792462 L215.999046,82.8481542 C214.766751,81.2008648 212.902512,80.206275 210.848688,80.206275 C206.835833,80.206275 204.055272,83.1900444 204.055272,88.0075888 C204.055272,92.8562142 206.86743,95.7778217 210.848688,95.7778217 C212.997303,95.7778217 214.861543,94.6278273 215.999046,93.1048616 L215.999046,95.3737696 C215.999046,98.5440246 213.597652,99.756181 211.069869,99.756181 C208.889656,99.756181 207.372987,99.1967242 206.109095,97.7359204 L204.908398,99.4142907 C206.741041,101.185904 208.510489,101.683199 211.069869,101.683199 L211.069869,101.683199 Z M211.449036,93.6953993 C208.352502,93.6953993 206.51986,91.3021676 206.51986,88.0075888 C206.51986,84.6819292 208.352502,82.2886974 211.449036,82.2886974 C213.313276,82.2886974 215.145919,83.407611 215.999046,84.6819292 L215.999046,91.2710867 C215.145919,92.5764858 213.313276,93.6953993 211.449036,93.6953993 L211.449036,93.6953993 Z" id="Simply-Shipping-Copy-2" sketch:type="MSShapeGroup"></path>
                <path d="M14.8817426,59.9768805 L14.8817426,40.8661817 L28.8982676,40.8661817 C41.8765315,40.8661817 48.9713158,32.2493041 48.9713158,22.0114298 C48.9713158,11.6882399 41.8765315,3.0713623 28.8982676,3.0713623 L0,3.0713623 L0,59.9768805 L14.8817426,59.9768805 Z M26.6487019,28.0688388 L14.8817426,28.0688388 L14.8817426,15.8687052 L26.6487019,15.8687052 C30.6287028,15.8687052 33.8300079,18.0869113 33.8300079,22.0114298 C33.8300079,25.8506327 30.6287028,28.0688388 26.6487019,28.0688388 L26.6487019,28.0688388 Z M89.5433651,59.9768805 L89.5433651,34.2115634 C89.5433651,21.4142205 80.1124933,17.7456488 70.0759692,17.7456488 C63.6733591,17.7456488 56.492053,19.6225925 51.127704,24.1443203 L56.0594442,33.2730916 C59.4337928,30.4576761 63.5868373,28.8366794 67.7398817,28.8366794 C73.1042308,28.8366794 76.2190141,31.3108323 76.2190141,34.8940883 L76.2190141,38.9892381 C73.7098831,35.9178758 68.7781428,34.1262478 63.2407503,34.1262478 C56.8381401,34.1262478 48.8781382,37.4535569 48.8781382,47.4354844 C48.8781382,56.6495713 56.8381401,61.0006679 63.2407503,61.0006679 C68.6050993,61.0006679 73.6233614,58.953093 76.2190141,55.8817307 L76.2190141,59.9768805 L89.5433651,59.9768805 Z M68.7781428,52.3837903 C65.3172725,52.3837903 62.1159674,50.8481092 62.1159674,47.6061156 C62.1159674,44.3641221 65.3172725,42.828441 68.7781428,42.828441 C71.7198827,42.828441 74.834666,43.7669128 76.2190141,45.729172 L76.2190141,49.3977436 C74.834666,51.3600029 71.7198827,52.3837903 68.7781428,52.3837903 L68.7781428,52.3837903 Z M117.310194,61.0006679 C126.394979,61.0006679 131.932371,56.9908338 134.441502,53.4075778 L125.789326,45.3879095 C124.145413,47.6914313 121.463238,49.3977436 117.915846,49.3977436 C112.378454,49.3977436 108.138888,45.5585408 108.138888,39.3305006 C108.138888,33.1024603 112.378454,29.3485731 117.915846,29.3485731 C121.463238,29.3485731 124.145413,30.8842542 125.789326,33.2730916 L134.441502,25.338739 C131.932371,21.6701673 126.394979,17.7456488 117.310194,17.7456488 C104.245408,17.7456488 94.5549713,26.447842 94.5549713,39.3305006 C94.5549713,52.2131591 104.245408,61.0006679 117.310194,61.0006679 L117.310194,61.0006679 Z M181.416162,59.9768805 L165.236593,37.5388725 L180.637466,18.7694363 L164.544419,18.7694363 L151.82572,35.2353508 L151.82572,3.0713623 L138.501369,3.0713623 L138.501369,59.9768805 L151.82572,59.9768805 L151.82572,50.0802686 L155.805721,45.3879095 L164.977028,59.9768805 L181.416162,59.9768805 Z M197.069945,59.9768805 L197.069945,3.0713623 L183.745594,3.0713623 L183.745594,59.9768805 L197.069945,59.9768805 Z M211.425901,15.1008646 C215.665467,15.1008646 219.126337,11.6882399 219.126337,7.50777451 C219.126337,3.32730916 215.665467,0 211.425901,0 C207.186335,0 203.811986,3.32730916 203.811986,7.50777451 C203.811986,11.6882399 207.186335,15.1008646 211.425901,15.1008646 L211.425901,15.1008646 Z M218.088076,59.9768805 L218.088076,18.7694363 L204.763725,18.7694363 L204.763725,59.9768805 L218.088076,59.9768805 Z M267.398823,59.9768805 L267.398823,30.7989386 C267.398823,23.2058485 263.072735,17.7456488 253.641863,17.7456488 C246.547079,17.7456488 241.615339,20.9023268 239.106208,23.8030578 L239.106208,18.7694363 L225.781857,18.7694363 L225.781857,59.9768805 L239.106208,59.9768805 L239.106208,33.3584072 C240.6636,31.4814636 243.259252,29.3485731 247.239253,29.3485731 C251.392298,29.3485731 254.074472,31.1402011 254.074472,36.1738226 L254.074472,59.9768805 L267.398823,59.9768805 Z M318.007397,59.9768805 L301.827828,37.5388725 L317.228701,18.7694363 L301.135654,18.7694363 L288.416955,35.2353508 L288.416955,3.0713623 L275.092604,3.0713623 L275.092604,59.9768805 L288.416955,59.9768805 L288.416955,50.0802686 L292.396956,45.3879095 L301.568262,59.9768805 L318.007397,59.9768805 Z" id="Packlink-Logotype-Copy-4" sketch:type="MSShapeGroup"></path>
                <path d="M321.028054,2.96813373 C319.732474,4.25259569 319.084694,5.80434131 319.084694,7.62341717 C319.084694,9.45637909 319.728954,11.0185391 321.017492,12.3099441 C322.313072,13.6013491 323.886755,14.2470419 325.738589,14.2470419 C327.590423,14.2470419 329.164106,13.6013491 330.459686,12.3099441 C331.755266,11.0185391 332.403046,9.45637909 332.403046,7.62341717 C332.403046,5.80434131 331.755266,4.25259569 330.459686,2.96813373 C329.157065,1.67672874 327.583382,1.03103593 325.738589,1.03103593 C323.900837,1.03103593 322.330675,1.67672874 321.028054,2.96813373 L321.028054,2.96813373 Z M331.230693,13.0493739 C329.716836,14.54907 327.886153,15.2989069 325.738589,15.2989069 C323.591025,15.2989069 321.763862,14.54907 320.257047,13.0493739 C318.757273,11.5566208 318.007397,9.74798667 318.007397,7.62341717 C318.007397,5.51967677 318.764314,3.72145701 320.27817,2.22870393 C321.784986,0.742893879 323.605107,0 325.738589,0 C327.886153,0 329.716836,0.742893879 331.230693,2.22870393 C332.74455,3.71451397 333.501467,5.51273374 333.501467,7.62341717 C333.501467,9.74104363 332.74455,11.5496778 331.230693,13.0493739 L331.230693,13.0493739 Z M327.20139,4.72818496 C326.824686,4.51989384 326.220913,4.41574983 325.390052,4.41574983 L324.112081,4.41574983 L324.112081,7.4567851 L325.463984,7.4567851 C326.097691,7.4567851 326.572965,7.39429869 326.889818,7.26932402 C327.474238,7.04020378 327.766443,6.60279897 327.766443,5.95709647 C327.766443,5.34610916 327.578094,4.93647609 327.20139,4.72818496 L327.20139,4.72818496 Z M325.590725,3.40554291 C326.646904,3.40554291 327.421423,3.50621545 327.914307,3.70756354 C328.794456,4.06860149 329.234524,4.77678071 329.234524,5.83212242 C329.234524,6.58197048 328.956401,7.13393369 328.400147,7.48802861 C328.104417,7.67549062 327.692513,7.81087783 327.164424,7.89419428 C327.833337,7.99833984 328.322693,8.27258571 328.632505,8.71694012 C328.942318,9.16129453 329.097222,9.59522787 329.097222,10.0187532 L329.097222,10.6332089 C329.097222,10.827614 329.104263,11.035902 329.118345,11.2580792 C329.132428,11.4802564 329.157071,11.626058 329.192277,11.6954884 L329.245086,11.7996334 L327.840375,11.7996334 C327.833334,11.7718612 327.826293,11.7440895 327.819251,11.7163174 C327.81221,11.6885452 327.805169,11.657302 327.798128,11.6225868 L327.766443,11.3518097 L327.766443,10.6852814 C327.766443,9.71325617 327.498881,9.07103483 326.963751,8.75859814 C326.646897,8.57807916 326.090651,8.48782102 325.294996,8.48782102 L324.112081,8.48782102 L324.112081,11.7996334 L322.612314,11.7996334 L322.612314,3.40554291 L325.590725,3.40554291 Z" id="®-copy-5" sketch:type="MSShapeGroup"></path>
                <path d="M354.651357,37.2592323 L354.651357,25.0279257 L363.533149,25.0279257 C371.056548,25.0279257 375.236215,19.9915053 375.236215,14.0300281 C375.236215,8.01715894 371.108794,2.98073858 363.533149,2.98073858 L347.232449,2.98073858 L347.232449,37.2592323 L354.651357,37.2592323 Z M362.488232,18.6039201 L354.651357,18.6039201 L354.651357,9.40474414 L362.488232,9.40474414 C365.413999,9.40474414 367.660569,11.1520737 367.660569,14.0300281 C367.660569,16.8565906 365.413999,18.6039201 362.488232,18.6039201 L362.488232,18.6039201 Z M408.151089,37.2592323 L400.261968,24.205653 C404.023668,23.3319882 407.942106,20.0428974 407.942106,14.0300281 C407.942106,7.65741463 403.448964,2.98073858 396.186793,2.98073858 L379.886094,2.98073858 L379.886094,37.2592323 L387.305002,37.2592323 L387.305002,25.0793177 L392.738569,25.0793177 L399.582773,37.2592323 L408.151089,37.2592323 Z M395.141877,18.6553122 L387.305002,18.6553122 L387.305002,9.40474414 L395.141877,9.40474414 C398.067643,9.40474414 400.314214,11.1520737 400.314214,13.9786361 C400.314214,16.9079826 398.067643,18.6553122 395.141877,18.6553122 L395.141877,18.6553122 Z M430.042092,37.8759368 C440.543504,37.8759368 448.223642,30.4754824 448.223642,20.1456814 C448.223642,9.8158805 440.543504,2.41542609 430.042092,2.41542609 C419.488434,2.41542609 411.808297,9.8158805 411.808297,20.1456814 C411.808297,30.4754824 419.488434,37.8759368 430.042092,37.8759368 L430.042092,37.8759368 Z M430.042092,31.4005392 C423.563609,31.4005392 419.436189,26.518295 419.436189,20.1456814 C419.436189,13.7216759 423.563609,8.8908237 430.042092,8.8908237 C436.46833,8.8908237 440.59575,13.7216759 440.59575,20.1456814 C440.59575,26.518295 436.46833,31.4005392 430.042092,31.4005392 L430.042092,31.4005392 Z" id="PRO-Copy" sketch:type="MSShapeGroup"></path>
            </g>
        </g>
    </g>
</svg>